<?xml version="1.0" encoding="UTF-8"?>
<svg width="167px" height="56px" viewBox="0 0 167 56" version="1.1" xmlns="http://www.w3.org/2000/svg" xmlns:xlink="http://www.w3.org/1999/xlink">
    <!-- Generator: Sketch 43.1 (39012) - http://www.bohemiancoding.com/sketch -->
    <title>Sites logo white</title>
    <desc>Created with Sketch.</desc>
    <defs></defs>
    <g id="Page-1" stroke="none" stroke-width="1" fill="none" fill-rule="evenodd">
        <g id="White-Logos" transform="translate(-2535.000000, -25.000000)" fill="#FFFFFF">
            <g id="Sites-logo-white" transform="translate(2535.000000, 25.000000)">
                <g id="websites" fill-rule="nonzero">
                    <path d="M23.1436406,0 C10.3650313,0 0.00721875,10.3586875 0.00721875,23.1364219 C0.00721875,40.707625 23.1436406,56 23.1436406,56 C23.1436406,56 46.2800625,40.707625 46.2800625,23.1364219 C46.2800625,10.3586875 35.92225,0 23.1436406,0 Z M23.1436406,41.1185469 C13.2123906,41.1185469 5.16239063,33.0685469 5.16239063,23.1364219 C5.16239063,13.2051719 13.2125,5.15429688 23.1436406,5.15429688 C33.0747813,5.15429688 41.12675,13.2051719 41.12675,23.1364219 C41.12675,33.0686563 33.0748906,41.1185469 23.1436406,41.1185469 Z" id="Shape-Copy-3"></path>
                    <g id="Website" transform="translate(13.343750, 14.000000)">
                        <path d="M0.0939941406,4.83 L0.0939941406,16.7445833 C0.0939941406,17.3716667 0.594384766,17.8733333 1.21987305,17.8733333 L18.358252,17.8733333 C18.9837402,17.8733333 19.4841309,17.3716667 19.4841309,16.7445833 L19.4841309,4.83 L0.0939941406,4.83 L0.0939941406,4.83 Z M14.7304199,11.3516667 C14.6678711,11.5397917 14.4802246,11.6652083 14.2925781,11.6652083 L13.4168945,11.6652083 C13.3543457,11.6652083 13.229248,11.7279167 13.229248,11.8533333 L13.229248,14.23625 C13.229248,14.8633333 12.7288574,15.365 12.1033691,15.365 L7.41220703,15.365 C6.78671875,15.365 6.28632812,14.8633333 6.28632812,14.23625 L6.28632812,11.8533333 C6.28632812,11.790625 6.2237793,11.6652083 6.09868164,11.6652083 L5.28554687,11.6652083 C5.09790039,11.6652083 4.91025391,11.5397917 4.84770508,11.3516667 C4.78515625,11.1635417 4.84770508,10.9754167 4.97280273,10.85 L9.03847656,7.02479167 C9.47631836,6.64854167 10.1643555,6.64854167 10.5396484,7.02479167 L12.2284668,8.65520833 L12.2284668,7.58916667 C12.2284668,7.33833333 12.4161133,7.0875 12.7288574,7.0875 C12.9790527,7.0875 13.229248,7.275625 13.229248,7.58916667 L13.229248,9.533125 L14.6678711,10.85 C14.7929687,10.9754167 14.8555176,11.1635417 14.7304199,11.3516667 Z" id="Shape"></path>
                        <path d="M18.358252,0.0641666667 L1.21987305,0.0641666667 C0.594384766,0.0641666667 0.0939941406,0.565833333 0.0939941406,1.19291667 L0.0939941406,3.889375 L19.4841309,3.889375 L19.4841309,1.19291667 C19.4841309,0.565833333 18.9837402,0.0641666667 18.358252,0.0641666667 Z M8.47553711,2.44708333 L1.90791016,2.44708333 C1.65771484,2.44708333 1.47006836,2.25895833 1.47006836,1.94541667 C1.47006836,1.631875 1.65771484,1.50645833 1.90791016,1.50645833 L8.47553711,1.50645833 C8.72573242,1.50645833 8.97592773,1.69458333 8.97592773,2.008125 C8.97592773,2.32166667 8.78828125,2.44708333 8.47553711,2.44708333 Z M14.9180664,2.44708333 L13.6670898,2.44708333 C13.4168945,2.44708333 13.1666992,2.25895833 13.1666992,1.94541667 C13.1666992,1.631875 13.3543457,1.44375 13.6670898,1.44375 L14.9180664,1.44375 C15.1682617,1.44375 15.418457,1.631875 15.418457,1.94541667 C15.418457,2.25895833 15.2308105,2.44708333 14.9180664,2.44708333 Z M17.607666,2.44708333 L16.3566895,2.44708333 C16.1064941,2.44708333 15.8562988,2.25895833 15.8562988,1.94541667 C15.8562988,1.631875 16.0439453,1.44375 16.3566895,1.44375 L17.607666,1.44375 C17.8578613,1.44375 18.1080566,1.631875 18.1080566,1.94541667 C18.1080566,2.25895833 17.8578613,2.44708333 17.607666,2.44708333 Z" id="Shape"></path>
                    </g>
                </g>
                <path d="M61.32,29.74 L59.62,29.74 C59.6466668,30.3800032 59.7799988,30.9233311 60.02,31.37 C60.2600012,31.8166689 60.579998,32.1766653 60.98,32.45 C61.380002,32.7233347 61.8399974,32.9199994 62.36,33.04 C62.8800026,33.1600006 63.4266638,33.22 64,33.22 C64.5200026,33.22 65.0433307,33.1700005 65.57,33.07 C66.0966693,32.9699995 66.5699979,32.7933346 66.99,32.54 C67.4100021,32.2866654 67.7499987,31.9533354 68.01,31.54 C68.2700013,31.1266646 68.4,30.6066698 68.4,29.98 C68.4,29.4866642 68.3033343,29.073335 68.11,28.74 C67.9166657,28.406665 67.6633349,28.1300011 67.35,27.91 C67.0366651,27.6899989 66.6766687,27.513334 66.27,27.38 C65.8633313,27.246666 65.4466688,27.1333338 65.02,27.04 C64.619998,26.9466662 64.220002,26.8566671 63.82,26.77 C63.419998,26.6833329 63.0600016,26.5766673 62.74,26.45 C62.4199984,26.3233327 62.1566677,26.1633343 61.95,25.97 C61.7433323,25.7766657 61.64,25.5333348 61.64,25.24 C61.64,24.973332 61.706666,24.7566675 61.84,24.59 C61.973334,24.4233325 62.1466656,24.2900005 62.36,24.19 C62.5733344,24.0899995 62.8099987,24.0200002 63.07,23.98 C63.3300013,23.9399998 63.5866654,23.92 63.84,23.92 C64.1200014,23.92 64.3966653,23.9499997 64.67,24.01 C64.9433347,24.0700003 65.1933322,24.166666 65.42,24.3 C65.6466678,24.433334 65.8333326,24.6099989 65.98,24.83 C66.1266674,25.0500011 66.2133332,25.326665 66.24,25.66 L67.94,25.66 C67.8999998,25.0333302 67.7666678,24.5100021 67.54,24.09 C67.3133322,23.6699979 67.0100019,23.3366679 66.63,23.09 C66.2499981,22.8433321 65.8133358,22.6700005 65.32,22.57 C64.8266642,22.4699995 64.2866696,22.42 63.7,22.42 C63.2466644,22.42 62.7900023,22.4766661 62.33,22.59 C61.8699977,22.7033339 61.4566685,22.8766655 61.09,23.11 C60.7233315,23.3433345 60.4233345,23.6466648 60.19,24.02 C59.9566655,24.3933352 59.84,24.8399974 59.84,25.36 C59.84,26.02667 60.006665,26.5466648 60.34,26.92 C60.673335,27.2933352 61.0899975,27.5833323 61.59,27.79 C62.0900025,27.9966677 62.6333304,28.1566661 63.22,28.27 C63.8066696,28.3833339 64.3499975,28.5099993 64.85,28.65 C65.3500025,28.7900007 65.766665,28.9733322 66.1,29.2 C66.433335,29.4266678 66.6,29.7599978 66.6,30.2 C66.6,30.5200016 66.5200008,30.7833323 66.36,30.99 C66.1999992,31.1966677 65.9966679,31.3533328 65.75,31.46 C65.5033321,31.5666672 65.2333348,31.6399998 64.94,31.68 C64.6466652,31.7200002 64.366668,31.74 64.1,31.74 C63.7533316,31.74 63.4166683,31.706667 63.09,31.64 C62.7633317,31.573333 62.4700013,31.4633341 62.21,31.31 C61.9499987,31.1566659 61.7400008,30.9500013 61.58,30.69 C61.4199992,30.4299987 61.3333334,30.1133352 61.32,29.74 Z M72.08,20.8 L72.08,18.72 L70.38,18.72 L70.38,20.8 L72.08,20.8 Z M70.38,22.66 L70.38,33 L72.08,33 L72.08,22.66 L70.38,22.66 Z M74.72,22.66 L74.72,33 L76.42,33 L76.42,26.56 C76.42,26.359999 76.4699995,26.1100015 76.57,25.81 C76.6700005,25.5099985 76.8299989,25.2200014 77.05,24.94 C77.2700011,24.6599986 77.5566649,24.420001 77.91,24.22 C78.2633351,24.019999 78.6866642,23.92 79.18,23.92 C79.5666686,23.92 79.8833321,23.9766661 80.13,24.09 C80.3766679,24.2033339 80.5733326,24.3633323 80.72,24.57 C80.8666674,24.7766677 80.9699997,25.0199986 81.03,25.3 C81.0900003,25.5800014 81.12,25.886665 81.12,26.22 L81.12,33 L82.82,33 L82.82,26.56 C82.82,25.759996 83.0599976,25.1200024 83.54,24.64 C84.0200024,24.1599976 84.6799958,23.92 85.52,23.92 C85.9333354,23.92 86.2699987,23.9799994 86.53,24.1 C86.7900013,24.2200006 86.9933326,24.3833323 87.14,24.59 C87.2866674,24.7966677 87.3866664,25.0399986 87.44,25.32 C87.4933336,25.6000014 87.52,25.8999984 87.52,26.22 L87.52,33 L89.22,33 L89.22,25.42 C89.22,24.886664 89.1366675,24.4300019 88.97,24.05 C88.8033325,23.6699981 88.5700015,23.3600012 88.27,23.12 C87.9699985,22.8799988 87.6100021,22.7033339 87.19,22.59 C86.7699979,22.4766661 86.3000026,22.42 85.78,22.42 C85.0999966,22.42 84.4766695,22.5733318 83.91,22.88 C83.3433305,23.1866682 82.8866684,23.6199972 82.54,24.18 C82.3266656,23.5399968 81.9600026,23.086668 81.44,22.82 C80.9199974,22.553332 80.3400032,22.42 79.7,22.42 C78.2466594,22.42 77.1333372,23.0066608 76.36,24.18 L76.32,24.18 L76.32,22.66 L74.72,22.66 Z M91.84,22.66 L93.54,22.66 L93.54,24.06 L93.58,24.06 C93.8600014,23.4866638 94.299997,23.0700013 94.9,22.81 C95.500003,22.5499987 96.1599964,22.42 96.88,22.42 C97.680004,22.42 98.3766637,22.5666652 98.97,22.86 C99.5633363,23.1533348 100.056665,23.5499975 100.45,24.05 C100.843335,24.5500025 101.139999,25.1266634 101.34,25.78 C101.540001,26.4333366 101.64,27.126663 101.64,27.86 C101.64,28.593337 101.543334,29.2866634 101.35,29.94 C101.156666,30.5933366 100.863335,31.1633309 100.47,31.65 C100.076665,32.1366691 99.5833363,32.5199986 98.99,32.8 C98.3966637,33.0800014 97.7066706,33.22 96.92,33.22 C96.6666654,33.22 96.3833349,33.1933336 96.07,33.14 C95.7566651,33.0866664 95.4466682,33.0000006 95.14,32.88 C94.8333318,32.7599994 94.5433347,32.5966677 94.27,32.39 C93.9966653,32.1833323 93.7666676,31.9266682 93.58,31.62 L93.54,31.62 L93.54,36.94 L91.84,36.94 L91.84,22.66 Z M99.84,27.74 C99.84,27.2599976 99.7766673,26.7900023 99.65,26.33 C99.5233327,25.8699977 99.3300013,25.4600018 99.07,25.1 C98.8099987,24.7399982 98.4766687,24.4533344 98.07,24.24 C97.6633313,24.0266656 97.1866694,23.92 96.64,23.92 C96.0666638,23.92 95.580002,24.0333322 95.18,24.26 C94.779998,24.4866678 94.4533346,24.7833315 94.2,25.15 C93.9466654,25.5166685 93.7633339,25.933331 93.65,26.4 C93.5366661,26.866669 93.48,27.3399976 93.48,27.82 C93.48,28.3266692 93.5399994,28.8166643 93.66,29.29 C93.7800006,29.7633357 93.9699987,30.1799982 94.23,30.54 C94.4900013,30.9000018 94.8266646,31.1899989 95.24,31.41 C95.6533354,31.6300011 96.1533304,31.74 96.74,31.74 C97.3266696,31.74 97.8166647,31.6266678 98.21,31.4 C98.6033353,31.1733322 98.9199988,30.8733352 99.16,30.5 C99.4000012,30.1266648 99.5733328,29.7000024 99.68,29.22 C99.7866672,28.7399976 99.84,28.2466692 99.84,27.74 Z M103.74,18.72 L103.74,33 L105.44,33 L105.44,18.72 L103.74,18.72 Z M115.26,26.84 C115.233333,26.439998 115.143334,26.0600018 114.99,25.7 C114.836666,25.3399982 114.630001,25.0300013 114.37,24.77 C114.109999,24.5099987 113.803335,24.3033341 113.45,24.15 C113.096665,23.9966659 112.706669,23.92 112.28,23.92 C111.839998,23.92 111.443335,23.9966659 111.09,24.15 C110.736665,24.3033341 110.433335,24.513332 110.18,24.78 C109.926665,25.046668 109.726667,25.3566649 109.58,25.71 C109.433333,26.0633351 109.346667,26.439998 109.32,26.84 L115.26,26.84 Z M116.9,29.72 C116.673332,30.8800058 116.173337,31.7533304 115.4,32.34 C114.626663,32.9266696 113.653339,33.22 112.48,33.22 C111.653329,33.22 110.93667,33.086668 110.33,32.82 C109.72333,32.553332 109.213335,32.1800024 108.8,31.7 C108.386665,31.2199976 108.076668,30.64667 107.87,29.98 C107.663332,29.31333 107.546667,28.5866706 107.52,27.8 C107.52,27.0133294 107.639999,26.2933366 107.88,25.64 C108.120001,24.9866634 108.456664,24.4200024 108.89,23.94 C109.323335,23.4599976 109.836664,23.086668 110.43,22.82 C111.023336,22.553332 111.67333,22.42 112.38,22.42 C113.300005,22.42 114.06333,22.6099981 114.67,22.99 C115.27667,23.3700019 115.763331,23.8533304 116.13,24.44 C116.496668,25.0266696 116.749999,25.6666632 116.89,26.36 C117.030001,27.0533368 117.086667,27.7133302 117.06,28.34 L109.32,28.34 C109.306667,28.7933356 109.359999,29.2233313 109.48,29.63 C109.600001,30.0366687 109.793332,30.3966651 110.06,30.71 C110.326668,31.0233349 110.666665,31.2733324 111.08,31.46 C111.493335,31.6466676 111.979997,31.74 112.54,31.74 C113.260004,31.74 113.849998,31.573335 114.31,31.24 C114.770002,30.906665 115.073333,30.4000034 115.22,29.72 L116.9,29.72 Z M67.12,47.3 L69.9,47.3 C69.8599998,46.63333 69.7000014,46.0566691 69.42,45.57 C69.1399986,45.0833309 68.7766689,44.6766683 68.33,44.35 C67.8833311,44.0233317 67.3766695,43.7800008 66.81,43.62 C66.2433305,43.4599992 65.6533364,43.38 65.04,43.38 C64.1999958,43.38 63.4533366,43.5199986 62.8,43.8 C62.1466634,44.0800014 61.5933356,44.4699975 61.14,44.97 C60.6866644,45.4700025 60.3433345,46.0633299 60.11,46.75 C59.8766655,47.4366701 59.76,48.179996 59.76,48.98 C59.76,49.7533372 59.8866654,50.4633301 60.14,51.11 C60.3933346,51.7566699 60.7466644,52.313331 61.2,52.78 C61.6533356,53.246669 62.2033301,53.6099987 62.85,53.87 C63.4966699,54.1300013 64.2066628,54.26 64.98,54.26 C66.3533402,54.26 67.4799956,53.9000036 68.36,53.18 C69.2400044,52.4599964 69.7733324,51.4133402 69.96,50.04 L67.22,50.04 C67.1266662,50.6800032 66.8966685,51.1899981 66.53,51.57 C66.1633315,51.9500019 65.6400034,52.14 64.96,52.14 C64.5199978,52.14 64.1466682,52.040001 63.84,51.84 C63.5333318,51.639999 63.2900009,51.3833349 63.11,51.07 C62.9299991,50.7566651 62.8000004,50.4066686 62.72,50.02 C62.6399996,49.6333314 62.6,49.2533352 62.6,48.88 C62.6,48.4933314 62.6399996,48.1033353 62.72,47.71 C62.8000004,47.3166647 62.9366657,46.9566683 63.13,46.63 C63.3233343,46.3033317 63.5733318,46.0366677 63.88,45.83 C64.1866682,45.6233323 64.5666644,45.52 65.02,45.52 C66.2333394,45.52 66.9333324,46.1133274 67.12,47.3 Z M71.56,39.72 L71.56,54 L74.4,54 L74.4,48.58 C74.4,47.5266614 74.5733316,46.7700023 74.92,46.31 C75.2666684,45.8499977 75.8266628,45.62 76.6,45.62 C77.2800034,45.62 77.753332,45.8299979 78.02,46.25 C78.286668,46.6700021 78.42,47.3066624 78.42,48.16 L78.42,54 L81.26,54 L81.26,47.64 C81.26,46.9999968 81.2033339,46.4166693 81.09,45.89 C80.9766661,45.3633307 80.7800014,44.9166685 80.5,44.55 C80.2199986,44.1833315 79.8366691,43.8966677 79.35,43.69 C78.8633309,43.4833323 78.2400038,43.38 77.48,43.38 C76.946664,43.38 76.4000028,43.5166653 75.84,43.79 C75.2799972,44.0633347 74.8200018,44.499997 74.46,45.1 L74.4,45.1 L74.4,39.72 L71.56,39.72 Z M93.12,54 L93.12,43.66 L90.28,43.66 L90.28,49.08 C90.28,50.1333386 90.1066684,50.8899977 89.76,51.35 C89.4133316,51.8100023 88.8533372,52.04 88.08,52.04 C87.3999966,52.04 86.926668,51.8300021 86.66,51.41 C86.393332,50.9899979 86.26,50.3533376 86.26,49.5 L86.26,43.66 L83.42,43.66 L83.42,50.02 C83.42,50.6600032 83.4766661,51.2433307 83.59,51.77 C83.7033339,52.2966693 83.8999986,52.7433315 84.18,53.11 C84.4600014,53.4766685 84.8433309,53.759999 85.33,53.96 C85.8166691,54.160001 86.4399962,54.26 87.2,54.26 C87.800003,54.26 88.3866638,54.126668 88.96,53.86 C89.5333362,53.593332 89.9999982,53.160003 90.36,52.56 L90.42,52.56 L90.42,54 L93.12,54 Z M95.28,43.66 L95.28,54 L98.12,54 L98.12,49.34 C98.12,48.873331 98.1666662,48.440002 98.26,48.04 C98.3533338,47.639998 98.5099989,47.2900015 98.73,46.99 C98.9500011,46.6899985 99.2399982,46.4533342 99.6,46.28 C99.9600018,46.1066658 100.399997,46.02 100.92,46.02 C101.093334,46.02 101.273332,46.0299999 101.46,46.05 C101.646668,46.0700001 101.806666,46.0933332 101.94,46.12 L101.94,43.48 C101.713332,43.413333 101.506668,43.38 101.32,43.38 C100.959998,43.38 100.613335,43.4333328 100.28,43.54 C99.946665,43.6466672 99.6333348,43.7966657 99.34,43.99 C99.0466652,44.1833343 98.7866678,44.4166653 98.56,44.69 C98.3333322,44.9633347 98.153334,45.2599984 98.02,45.58 L97.98,45.58 L97.98,43.66 L95.28,43.66 Z M110.1,47.3 L112.88,47.3 C112.84,46.63333 112.680001,46.0566691 112.4,45.57 C112.119999,45.0833309 111.756669,44.6766683 111.31,44.35 C110.863331,44.0233317 110.356669,43.7800008 109.79,43.62 C109.22333,43.4599992 108.633336,43.38 108.02,43.38 C107.179996,43.38 106.433337,43.5199986 105.78,43.8 C105.126663,44.0800014 104.573336,44.4699975 104.12,44.97 C103.666664,45.4700025 103.323334,46.0633299 103.09,46.75 C102.856665,47.4366701 102.74,48.179996 102.74,48.98 C102.74,49.7533372 102.866665,50.4633301 103.12,51.11 C103.373335,51.7566699 103.726664,52.313331 104.18,52.78 C104.633336,53.246669 105.18333,53.6099987 105.83,53.87 C106.47667,54.1300013 107.186663,54.26 107.96,54.26 C109.33334,54.26 110.459996,53.9000036 111.34,53.18 C112.220004,52.4599964 112.753332,51.4133402 112.94,50.04 L110.2,50.04 C110.106666,50.6800032 109.876668,51.1899981 109.51,51.57 C109.143331,51.9500019 108.620003,52.14 107.94,52.14 C107.499998,52.14 107.126668,52.040001 106.82,51.84 C106.513332,51.639999 106.270001,51.3833349 106.09,51.07 C105.909999,50.7566651 105.78,50.4066686 105.7,50.02 C105.62,49.6333314 105.58,49.2533352 105.58,48.88 C105.58,48.4933314 105.62,48.1033353 105.7,47.71 C105.78,47.3166647 105.916666,46.9566683 106.11,46.63 C106.303334,46.3033317 106.553332,46.0366677 106.86,45.83 C107.166668,45.6233323 107.546664,45.52 108,45.52 C109.213339,45.52 109.913332,46.1133274 110.1,47.3 Z M114.54,39.72 L114.54,54 L117.38,54 L117.38,48.58 C117.38,47.5266614 117.553332,46.7700023 117.9,46.31 C118.246668,45.8499977 118.806663,45.62 119.58,45.62 C120.260003,45.62 120.733332,45.8299979 121,46.25 C121.266668,46.6700021 121.4,47.3066624 121.4,48.16 L121.4,54 L124.24,54 L124.24,47.64 C124.24,46.9999968 124.183334,46.4166693 124.07,45.89 C123.956666,45.3633307 123.760001,44.9166685 123.48,44.55 C123.199999,44.1833315 122.816669,43.8966677 122.33,43.69 C121.843331,43.4833323 121.220004,43.38 120.46,43.38 C119.926664,43.38 119.380003,43.5166653 118.82,43.79 C118.259997,44.0633347 117.800002,44.499997 117.44,45.1 L117.38,45.1 L117.38,39.72 L114.54,39.72 Z M127.64,50.74 L125.94,50.74 C125.966667,51.3800032 126.099999,51.9233311 126.34,52.37 C126.580001,52.8166689 126.899998,53.1766653 127.3,53.45 C127.700002,53.7233347 128.159997,53.9199994 128.68,54.04 C129.200003,54.1600006 129.746664,54.22 130.32,54.22 C130.840003,54.22 131.363331,54.1700005 131.89,54.07 C132.416669,53.9699995 132.889998,53.7933346 133.31,53.54 C133.730002,53.2866654 134.069999,52.9533354 134.33,52.54 C134.590001,52.1266646 134.72,51.6066698 134.72,50.98 C134.72,50.4866642 134.623334,50.073335 134.43,49.74 C134.236666,49.406665 133.983335,49.1300011 133.67,48.91 C133.356665,48.6899989 132.996669,48.513334 132.59,48.38 C132.183331,48.246666 131.766669,48.1333338 131.34,48.04 C130.939998,47.9466662 130.540002,47.8566671 130.14,47.77 C129.739998,47.6833329 129.380002,47.5766673 129.06,47.45 C128.739998,47.3233327 128.476668,47.1633343 128.27,46.97 C128.063332,46.7766657 127.96,46.5333348 127.96,46.24 C127.96,45.973332 128.026666,45.7566675 128.16,45.59 C128.293334,45.4233325 128.466666,45.2900005 128.68,45.19 C128.893334,45.0899995 129.129999,45.0200002 129.39,44.98 C129.650001,44.9399998 129.906665,44.92 130.16,44.92 C130.440001,44.92 130.716665,44.9499997 130.99,45.01 C131.263335,45.0700003 131.513332,45.166666 131.74,45.3 C131.966668,45.433334 132.153333,45.6099989 132.3,45.83 C132.446667,46.0500011 132.533333,46.326665 132.56,46.66 L134.26,46.66 C134.22,46.0333302 134.086668,45.5100021 133.86,45.09 C133.633332,44.6699979 133.330002,44.3366679 132.95,44.09 C132.569998,43.8433321 132.133336,43.6700005 131.64,43.57 C131.146664,43.4699995 130.60667,43.42 130.02,43.42 C129.566664,43.42 129.110002,43.4766661 128.65,43.59 C128.189998,43.7033339 127.776668,43.8766655 127.41,44.11 C127.043331,44.3433345 126.743334,44.6466648 126.51,45.02 C126.276665,45.3933352 126.16,45.8399974 126.16,46.36 C126.16,47.02667 126.326665,47.5466648 126.66,47.92 C126.993335,48.2933352 127.409997,48.5833323 127.91,48.79 C128.410002,48.9966677 128.95333,49.1566661 129.54,49.27 C130.12667,49.3833339 130.669997,49.5099993 131.17,49.65 C131.670002,49.7900007 132.086665,49.9733322 132.42,50.2 C132.753335,50.4266678 132.92,50.7599978 132.92,51.2 C132.92,51.5200016 132.840001,51.7833323 132.68,51.99 C132.519999,52.1966677 132.316668,52.3533328 132.07,52.46 C131.823332,52.5666672 131.553335,52.6399998 131.26,52.68 C130.966665,52.7200002 130.686668,52.74 130.42,52.74 C130.073332,52.74 129.736668,52.706667 129.41,52.64 C129.083332,52.573333 128.790001,52.4633341 128.53,52.31 C128.269999,52.1566659 128.060001,51.9500013 127.9,51.69 C127.739999,51.4299987 127.653333,51.1133352 127.64,50.74 Z M138.4,41.8 L138.4,39.72 L136.7,39.72 L136.7,41.8 L138.4,41.8 Z M136.7,43.66 L136.7,54 L138.4,54 L138.4,43.66 L136.7,43.66 Z M143.4,43.66 L143.4,40.56 L141.7,40.56 L141.7,43.66 L139.94,43.66 L139.94,45.16 L141.7,45.16 L141.7,51.74 C141.7,52.2200024 141.746666,52.6066652 141.84,52.9 C141.933334,53.1933348 142.076666,53.4199992 142.27,53.58 C142.463334,53.7400008 142.716665,53.8499997 143.03,53.91 C143.343335,53.9700003 143.719998,54 144.16,54 L145.46,54 L145.46,52.5 L144.68,52.5 C144.413332,52.5 144.196667,52.4900001 144.03,52.47 C143.863332,52.4499999 143.733334,52.406667 143.64,52.34 C143.546666,52.273333 143.483333,52.1800006 143.45,52.06 C143.416666,51.9399994 143.4,51.780001 143.4,51.58 L143.4,45.16 L145.46,45.16 L145.46,43.66 L143.4,43.66 Z M154.52,47.84 C154.493333,47.439998 154.403334,47.0600018 154.25,46.7 C154.096666,46.3399982 153.890001,46.0300013 153.63,45.77 C153.369999,45.5099987 153.063335,45.3033341 152.71,45.15 C152.356665,44.9966659 151.966669,44.92 151.54,44.92 C151.099998,44.92 150.703335,44.9966659 150.35,45.15 C149.996665,45.3033341 149.693335,45.513332 149.44,45.78 C149.186665,46.046668 148.986667,46.3566649 148.84,46.71 C148.693333,47.0633351 148.606667,47.439998 148.58,47.84 L154.52,47.84 Z M156.16,50.72 C155.933332,51.8800058 155.433337,52.7533304 154.66,53.34 C153.886663,53.9266696 152.913339,54.22 151.74,54.22 C150.913329,54.22 150.19667,54.086668 149.59,53.82 C148.98333,53.553332 148.473335,53.1800024 148.06,52.7 C147.646665,52.2199976 147.336668,51.64667 147.13,50.98 C146.923332,50.31333 146.806667,49.5866706 146.78,48.8 C146.78,48.0133294 146.899999,47.2933366 147.14,46.64 C147.380001,45.9866634 147.716664,45.4200024 148.15,44.94 C148.583335,44.4599976 149.096664,44.086668 149.69,43.82 C150.283336,43.553332 150.93333,43.42 151.64,43.42 C152.560005,43.42 153.32333,43.6099981 153.93,43.99 C154.53667,44.3700019 155.023331,44.8533304 155.39,45.44 C155.756668,46.0266696 156.009999,46.6666632 156.15,47.36 C156.290001,48.0533368 156.346667,48.7133302 156.32,49.34 L148.58,49.34 C148.566667,49.7933356 148.619999,50.2233313 148.74,50.63 C148.860001,51.0366687 149.053332,51.3966651 149.32,51.71 C149.586668,52.0233349 149.926665,52.2733324 150.34,52.46 C150.753335,52.6466676 151.239997,52.74 151.8,52.74 C152.520004,52.74 153.109998,52.573335 153.57,52.24 C154.030002,51.906665 154.333333,51.4000034 154.48,50.72 L156.16,50.72 Z M159.12,50.74 L157.42,50.74 C157.446667,51.3800032 157.579999,51.9233311 157.82,52.37 C158.060001,52.8166689 158.379998,53.1766653 158.78,53.45 C159.180002,53.7233347 159.639997,53.9199994 160.16,54.04 C160.680003,54.1600006 161.226664,54.22 161.8,54.22 C162.320003,54.22 162.843331,54.1700005 163.37,54.07 C163.896669,53.9699995 164.369998,53.7933346 164.79,53.54 C165.210002,53.2866654 165.549999,52.9533354 165.81,52.54 C166.070001,52.1266646 166.2,51.6066698 166.2,50.98 C166.2,50.4866642 166.103334,50.073335 165.91,49.74 C165.716666,49.406665 165.463335,49.1300011 165.15,48.91 C164.836665,48.6899989 164.476669,48.513334 164.07,48.38 C163.663331,48.246666 163.246669,48.1333338 162.82,48.04 C162.419998,47.9466662 162.020002,47.8566671 161.62,47.77 C161.219998,47.6833329 160.860002,47.5766673 160.54,47.45 C160.219998,47.3233327 159.956668,47.1633343 159.75,46.97 C159.543332,46.7766657 159.44,46.5333348 159.44,46.24 C159.44,45.973332 159.506666,45.7566675 159.64,45.59 C159.773334,45.4233325 159.946666,45.2900005 160.16,45.19 C160.373334,45.0899995 160.609999,45.0200002 160.87,44.98 C161.130001,44.9399998 161.386665,44.92 161.64,44.92 C161.920001,44.92 162.196665,44.9499997 162.47,45.01 C162.743335,45.0700003 162.993332,45.166666 163.22,45.3 C163.446668,45.433334 163.633333,45.6099989 163.78,45.83 C163.926667,46.0500011 164.013333,46.326665 164.04,46.66 L165.74,46.66 C165.7,46.0333302 165.566668,45.5100021 165.34,45.09 C165.113332,44.6699979 164.810002,44.3366679 164.43,44.09 C164.049998,43.8433321 163.613336,43.6700005 163.12,43.57 C162.626664,43.4699995 162.08667,43.42 161.5,43.42 C161.046664,43.42 160.590002,43.4766661 160.13,43.59 C159.669998,43.7033339 159.256668,43.8766655 158.89,44.11 C158.523331,44.3433345 158.223334,44.6466648 157.99,45.02 C157.756665,45.3933352 157.64,45.8399974 157.64,46.36 C157.64,47.02667 157.806665,47.5466648 158.14,47.92 C158.473335,48.2933352 158.889997,48.5833323 159.39,48.79 C159.890002,48.9966677 160.43333,49.1566661 161.02,49.27 C161.60667,49.3833339 162.149997,49.5099993 162.65,49.65 C163.150002,49.7900007 163.566665,49.9733322 163.9,50.2 C164.233335,50.4266678 164.4,50.7599978 164.4,51.2 C164.4,51.5200016 164.320001,51.7833323 164.16,51.99 C163.999999,52.1966677 163.796668,52.3533328 163.55,52.46 C163.303332,52.5666672 163.033335,52.6399998 162.74,52.68 C162.446665,52.7200002 162.166668,52.74 161.9,52.74 C161.553332,52.74 161.216668,52.706667 160.89,52.64 C160.563332,52.573333 160.270001,52.4633341 160.01,52.31 C159.749999,52.1566659 159.540001,51.9500013 159.38,51.69 C159.219999,51.4299987 159.133333,51.1133352 159.12,50.74 Z" id="simple-churchsites-copy"></path>
            </g>
        </g>
    </g>
</svg>